<?xml version="1.0" encoding="UTF-8" standalone="no"?>
<svg
   xmlns:dc="http://purl.org/dc/elements/1.1/"
   xmlns:cc="http://creativecommons.org/ns#"
   xmlns:rdf="http://www.w3.org/1999/02/22-rdf-syntax-ns#"
   xmlns:svg="http://www.w3.org/2000/svg"
   xmlns="http://www.w3.org/2000/svg"
   id="svg8"
   version="1.1"
   viewBox="0 0 4.2333332 4.2333336"
   height="16"
   width="16">
  <defs
     id="defs2" />
  <metadata
     id="metadata5">
    <rdf:RDF>
      <cc:Work
         rdf:about="">
        <dc:format>image/svg+xml</dc:format>
        <dc:type
           rdf:resource="http://purl.org/dc/dcmitype/StillImage" />
        <dc:title></dc:title>
      </cc:Work>
    </rdf:RDF>
  </metadata>
  <g
     transform="translate(0,-292.76665)"
     id="layer1">
    <path
       style="fill:#aaaaaa;stroke-width:0.20181617"
       d="m 3.4636366,295.30666 h 0.7696969 v -2.54 H 3.4636366 m -0.7696969,0 H 0.96212162 c -0.1597121,0 -0.2963333,0.10583 -0.3540606,0.25823 l -0.5811212,1.49225 c -0.017319,0.0487 -0.0269400033333,0.0995 -0.0269400033333,0.15452 V 295.095 A 0.38484846,0.42333307 0 0 0 0.38484832,295.51832 H 1.5990452 l -0.182803,0.96732 c -0.00385,0.0212 -0.00577,0.0423 -0.00577,0.0656 0,0.0889 0.032712,0.16722 0.084667,0.22437 l 0.2039697,0.22437 1.2661514,-1.39489 c 0.071197,-0.0762 0.1135303,-0.18203 0.1135303,-0.29844 v -2.11667 c 0,-0.23495 -0.1731818,-0.42333 -0.3848485,-0.42333 z"
       id="path17" />
  </g>
</svg>
